<svg height="512" viewBox="0 0 64 64" width="512" xmlns="http://www.w3.org/2000/svg"><path d="m14 30h3v6h-3z" fill="#00ccb3"/><path d="m13 36h5v6h-5z" fill="#3e3d42"/><path d="m47 30h3v6h-3z" fill="#00ccb3"/><path d="m46 36h5v6h-5z" fill="#3e3d42"/><path d="m43 55h4c0 2.21-4 6-4 6s-4-3.79-4-6z" fill="#ff9811"/><path d="m46 54.5c0 1.381-3 4.5-3 4.5s-3-3.119-3-4.5a2.784 2.784 0 0 1 3-2.5 2.784 2.784 0 0 1 3 2.5z" fill="#ff5023"/><path d="m21 55h4c0 2.21-4 6-4 6s-4-3.79-4-6z" fill="#ff9811"/><path d="m24 54.5c0 1.381-3 4.5-3 4.5s-3-3.119-3-4.5a2.784 2.784 0 0 1 3-2.5 2.784 2.784 0 0 1 3 2.5z" fill="#ff5023"/><path d="m48.72 48.55-.72 6.45h-10l-.47-4.22a43.776 43.776 0 0 0 11.19-2.23z" fill="#e0e0e2"/><path d="m26.47 50.78-.47 4.22h-10l-.72-6.45a43.776 43.776 0 0 0 11.19 2.23z" fill="#e0e0e2"/><rect fill="#898890" height="6" rx="1" width="2" x="17" y="47"/><rect fill="#a8a8aa" height="6" rx="1" width="2" x="45" y="47"/><path d="m36 37.12v6.88h-8v-6.88c1.3-.08 2.63-.12 4-.12s2.7.04 4 .12z" fill="#ffda44"/><path d="m54 44c0 1.74-1.99 3.33-5.28 4.55a43.776 43.776 0 0 1 -11.19 2.23c-1.77.14-3.62.22-5.53.22s-3.76-.08-5.53-.22a43.776 43.776 0 0 1 -11.19-2.23c-3.29-1.23-5.28-2.81-5.28-4.55z" fill="#ab2300"/><path d="m51 40.47c1.91 1.03 3 2.24 3 3.53h-18v-6.88a56.487 56.487 0 0 1 6.99.81c1.06.2 2.07.42 3.01.67a22.262 22.262 0 0 1 5 1.87z" fill="#ff6243"/><path d="m21.01 37.93a56.487 56.487 0 0 1 6.99-.81v6.88h-18c0-1.29 1.09-2.5 3-3.53a22.262 22.262 0 0 1 5-1.87c.94-.25 1.95-.47 3.01-.67z" fill="#ff6243"/><path d="m42.99 37.93a56.487 56.487 0 0 0 -6.99-.81c-1.3-.08-2.63-.12-4-.12s-2.7.04-4 .12a56.487 56.487 0 0 0 -6.99.81l.99-5.93h20z" fill="#57565c"/><g fill="#ff5023"><path d="m48.5 13a2.5 2.5 0 0 1 2.5 2.5c0 1.38-2.5 4.5-2.5 4.5s-2.5-3.12-2.5-4.5a2.5 2.5 0 0 1 2.5-2.5z"/><path d="m37.5 8a2.5 2.5 0 0 1 2.5 2.5c0 1.38-2.5 4.5-2.5 4.5s-2.5-3.12-2.5-4.5a2.5 2.5 0 0 1 2.5-2.5z"/><path d="m23.5 3a2.5 2.5 0 0 1 2.5 2.5c0 1.38-2.5 4.5-2.5 4.5s-2.5-3.12-2.5-4.5a2.5 2.5 0 0 1 2.5-2.5z"/><path d="m15.5 16a2.5 2.5 0 0 1 2.5 2.5c0 1.38-2.5 4.5-2.5 4.5s-2.5-3.12-2.5-4.5a2.5 2.5 0 0 1 2.5-2.5z"/></g><path d="m24 32a8 8 0 0 1 16 0z" fill="#00e7f0"/><rect fill="#9bfbff" height="2" rx="1" width="4" x="27" y="27"/><rect fill="#787680" height="2" rx="1" width="7" x="23" y="33"/><path d="m14 42h8v1h-8z" fill="#ff8169"/></svg>